HIERARCHY
ROOT joint_Root
{
	OFFSET 0.0 0.0 0.0
	CHANNELS 6 Xposition Yposition Zposition Zrotation Xrotation Yrotation 
	JOINT Hips
	{
		OFFSET 4.5925 91.4895 -427.239
		CHANNELS 6 Xposition Yposition Zposition Zrotation Xrotation Yrotation 
		JOINT Spine
		{
			OFFSET 15.7357 0.0 0.0
			CHANNELS 6 Xposition Yposition Zposition Zrotation Xrotation Yrotation 
			JOINT Chest
			{
				OFFSET 8.98455 -0.406207 0.0
				CHANNELS 6 Xposition Yposition Zposition Zrotation Xrotation Yrotation 
				JOINT Neck
				{
					OFFSET 16.3773 0.0 0.0
					CHANNELS 6 Xposition Yposition Zposition Zrotation Xrotation Yrotation 
					JOINT Head
					{
						OFFSET 6.45672 0.0 0.0
						CHANNELS 6 Xposition Yposition Zposition Zrotation Xrotation Yrotation 
						End Site
						{
							OFFSET 0.0 0.0 0.0
						}
					}
				}
				JOINT Shoulder_L
				{
					OFFSET 12.9942 -0.242716 4.98039
					CHANNELS 6 Xposition Yposition Zposition Zrotation Xrotation Yrotation 
					JOINT UpperArm_L
					{
						OFFSET 5.34809 0.0 0.0
						CHANNELS 6 Xposition Yposition Zposition Zrotation Xrotation Yrotation 
						JOINT LowerArm_L
						{
							OFFSET 24.3286 1.87007e-05 0.0
							CHANNELS 6 Xposition Yposition Zposition Zrotation Xrotation Yrotation 
							JOINT Hand_L
							{
								OFFSET 22.2916 0.0 0.0
								CHANNELS 6 Xposition Yposition Zposition Zrotation Xrotation Yrotation 
								End Site
								{
									OFFSET 0.0 0.0 0.0
								}
							}
						}
					}
				}
				JOINT Shoulder_R
				{
					OFFSET 12.9945 -0.242716 -4.98039
					CHANNELS 6 Xposition Yposition Zposition Zrotation Xrotation Yrotation 
					JOINT UpperArm_R
					{
						OFFSET -5.34813 0.0 0.0
						CHANNELS 6 Xposition Yposition Zposition Zrotation Xrotation Yrotation 
						JOINT LowerArm_R
						{
							OFFSET -24.3289 0.000322201 0.0
							CHANNELS 6 Xposition Yposition Zposition Zrotation Xrotation Yrotation 
							JOINT Hand_R
							{
								OFFSET -22.2915 -0.000108084 0.0
								CHANNELS 6 Xposition Yposition Zposition Zrotation Xrotation Yrotation 
								End Site
								{
									OFFSET 0.0 0.0 0.0
								}
							}
						}
					}
				}
			}
		}
		JOINT UpperLeg_L
		{
			OFFSET -2.19248 -6.46944 0.0
			CHANNELS 6 Xposition Yposition Zposition Zrotation Xrotation Yrotation 
			JOINT LowerLeg_L
			{
				OFFSET 39.0811 0.0 -1.23785e-05
				CHANNELS 6 Xposition Yposition Zposition Zrotation Xrotation Yrotation 
				JOINT Foot_L
				{
					OFFSET 40.9854 0.0 -1.26872e-05
					CHANNELS 6 Xposition Yposition Zposition Zrotation Xrotation Yrotation 
					JOINT Toes_L
					{
						OFFSET 11.7543 0.0 0.0
						CHANNELS 6 Xposition Yposition Zposition Zrotation Xrotation Yrotation 
						End Site
						{
							OFFSET 0.0 0.0 0.0
						}
					}
				}
			}
		}
		JOINT UpperLeg_R
		{
			OFFSET -2.19251 6.46944 0.0
			CHANNELS 6 Xposition Yposition Zposition Zrotation Xrotation Yrotation 
			JOINT LowerLeg_R
			{
				OFFSET -39.0811 -0.00228153 -0.0401928
				CHANNELS 6 Xposition Yposition Zposition Zrotation Xrotation Yrotation 
				JOINT Foot_R
				{
					OFFSET -40.9854 0.0 0.0
					CHANNELS 6 Xposition Yposition Zposition Zrotation Xrotation Yrotation 
					JOINT Toes_R
					{
						OFFSET -11.7543 0.0 0.0
						CHANNELS 6 Xposition Yposition Zposition Zrotation Xrotation Yrotation 
						End Site
						{
							OFFSET 0.0 0.0 0.0
						}
					}
				}
			}
		}
	}
}
MOTION
Frames:	8
Frame Time:	0.0333333
0.000000 0.000000 0.000000 0.000000 0.000000 -0.000000 3.119210 91.354300 -497.085000 84.963400 5.605330 -17.275800 15.735700 0.000005 -0.000001 37.750800 82.737500 -34.479400 8.984550 -0.406207 -0.000000 1.503420 -11.658000 6.708270 16.377300 -0.000001 -0.000001 -9.620150 -4.065400 2.485170 6.456720 -0.000001 -0.000000 -17.102500 2.644160 3.293940 12.994200 -0.242716 4.980390 -88.313500 -9.258270 -79.629100 5.348090 -0.000007 -0.000001 -52.237500 20.778200 -43.395300 24.328600 0.000019 0.000005 8.605850 -5.575480 -122.695000 22.291600 -0.000001 0.000005 15.523800 5.507430 -6.836430 12.994500 -0.242716 -4.980390 91.930400 -6.005470 -72.146400 -5.348130 -0.000001 -0.000004 -69.713600 25.903400 35.408000 -24.328900 0.000322 -0.000009 -3.074300 -1.752060 -60.309400 -22.291500 -0.000108 -0.000004 13.920800 5.530280 -7.802490 -2.192480 -6.469440 -0.000000 -167.838000 -19.194000 -2.682680 39.081100 -0.000007 -0.000012 0.031024 -0.068170 24.470000 40.985400 -0.000006 -0.000013 -3.377470 15.397900 -47.905400 11.754300 -0.000000 0.000003 -0.208964 -0.659801 -44.924500 -2.192510 6.469440 -0.000001 -170.842000 5.402270 132.048000 -39.081100 -0.002282 -0.040193 0.053658 -0.016938 71.480800 -40.985400 0.000008 0.000006 3.652080 -7.762000 -65.229300 -11.754300 -0.000006 -0.000006 -0.017396 -0.152413 -22.795600
0.000000 0.000000 0.000000 0.000000 0.000000 -0.000000 3.378970 93.046900 -490.661000 85.848600 4.386080 -18.044700 15.735700 0.000005 -0.000001 34.521000 82.616900 -30.787500 8.984550 -0.406207 -0.000000 1.049940 -12.380500 7.597940 16.377300 -0.000001 -0.000001 -9.223720 -3.822620 3.144920 6.456720 -0.000001 -0.000000 -17.863700 3.165880 4.415760 12.994200 -0.242716 4.980390 -88.045100 -10.244000 -79.136200 5.348090 -0.000007 -0.000001 -56.489000 25.788000 -36.827500 24.328600 0.000019 0.000005 7.109310 -3.947830 -118.893000 22.291600 -0.000001 0.000005 16.055500 5.474110 -5.525580 12.994500 -0.242716 -4.980390 92.482900 -7.271460 -71.089400 -5.348130 -0.000001 -0.000004 -72.839700 22.689700 35.618400 -24.328900 0.000322 -0.000009 -5.476490 -2.208190 -68.082400 -22.291500 -0.000108 -0.000004 15.859400 5.535860 -8.057240 -2.192480 -6.469440 -0.000000 -168.230000 -18.712200 0.451530 39.081100 -0.000007 -0.000012 0.048361 -0.125710 21.041900 40.985400 -0.000006 -0.000013 -2.597820 14.535900 -39.109900 11.754300 -0.000000 0.000003 -0.018854 -0.160872 -23.147400 -2.192510 6.469440 -0.000001 -171.090000 6.293870 133.485000 -39.081100 -0.002282 -0.040193 0.033962 -0.018641 58.779300 -40.985400 0.000008 0.000006 1.913740 -4.066310 -68.647000 -11.754300 -0.000006 -0.000006 -0.018537 -0.159045 -23.068400
0.000000 0.000000 0.000000 0.000000 0.000000 -0.000000 3.979840 93.290000 -484.021000 86.968100 2.176940 -17.266400 15.735700 0.000005 -0.000001 34.924900 82.513200 -31.071700 8.984550 -0.406207 -0.000000 1.275840 -12.490100 7.863730 16.377300 -0.000001 -0.000001 -8.562370 -3.234600 3.641410 6.456720 -0.000001 -0.000000 -17.223700 3.518300 5.248240 12.994200 -0.242716 4.980390 -87.807100 -10.354700 -77.973200 5.348090 -0.000007 -0.000001 -61.105000 29.285900 -30.919900 24.328600 0.000019 0.000005 7.746560 -3.317940 -113.058000 22.291600 -0.000001 0.000005 15.739400 5.416830 -3.487720 12.994500 -0.242716 -4.980390 92.575500 -7.537080 -71.072000 -5.348130 -0.000001 -0.000004 -76.105600 20.881900 35.570500 -24.328900 0.000322 -0.000009 -7.074510 -1.768520 -76.027500 -22.291500 -0.000108 -0.000004 17.181500 5.539920 -8.238190 -2.192480 -6.469440 -0.000000 -169.484000 -17.752400 2.894830 39.081100 -0.000007 -0.000012 0.055951 -0.111218 26.705600 40.985400 -0.000006 -0.000013 -1.146010 4.307900 -42.053700 11.754300 -0.000000 0.000003 -0.007189 -0.081292 -19.886300 -2.192510 6.469440 -0.000001 -171.961000 7.744740 136.834000 -39.081100 -0.002282 -0.040193 -0.019265 0.020955 47.064400 -40.985400 0.000008 0.000006 -1.569820 2.675610 -71.178000 -11.754300 -0.000006 -0.000006 -0.019499 -0.164500 -23.293000
0.000000 0.000000 0.000000 0.000000 0.000000 -0.000000 4.581930 92.495100 -477.145000 89.049000 -0.383793 -14.910400 15.735700 0.000005 -0.000001 39.066200 82.361200 -35.750100 8.984550 -0.406207 -0.000000 2.267750 -12.013100 6.883660 16.377300 -0.000001 -0.000001 -7.642690 -3.066540 4.249480 6.456720 -0.000001 -0.000000 -16.862200 3.492430 6.146480 12.994200 -0.242716 4.980390 -87.976100 -8.606010 -76.709900 5.348090 -0.000007 -0.000001 -64.368100 31.202200 -25.382600 24.328600 0.000019 0.000005 10.521300 -3.147650 -106.482000 22.291600 -0.000001 0.000005 14.051900 5.413580 -3.395070 12.994500 -0.242716 -4.980390 91.652400 -4.858980 -71.192200 -5.348130 -0.000001 -0.000004 -77.294200 20.783500 33.882200 -24.328900 0.000322 -0.000009 -7.411110 -0.933261 -82.861700 -22.291500 -0.000108 -0.000004 17.449800 5.548990 -8.658550 -2.192480 -6.469440 -0.000000 -173.193000 -13.616100 5.001050 39.081100 -0.000007 -0.000012 0.104247 -0.134741 37.728100 40.985400 -0.000006 -0.000013 1.908870 -1.342130 -43.198100 11.754300 -0.000000 0.000003 -0.004312 -0.054651 -18.800000 -2.192510 6.469440 -0.000001 -173.583000 9.984780 141.293000 -39.081100 -0.002282 -0.040193 -0.075919 0.097298 39.145300 -40.985400 0.000008 0.000006 -4.867190 8.245810 -71.333100 -11.754300 -0.000006 -0.000006 -0.020677 -0.171009 -23.561200
0.000000 0.000000 0.000000 0.000000 0.000000 -0.000000 5.056870 90.750900 -470.189000 90.867900 -3.055870 -11.681200 15.735700 0.000005 -0.000001 47.742700 82.182700 -44.982600 8.984550 -0.406207 -0.000000 4.125800 -10.586200 5.908840 16.377300 -0.000001 -0.000001 -6.882130 -3.147250 4.713530 6.456720 -0.000001 -0.000000 -16.921200 3.015730 6.756800 12.994200 -0.242716 4.980390 -88.528300 -5.653340 -75.375600 5.348090 -0.000007 -0.000001 -67.546300 31.826000 -19.892500 24.328600 0.000019 0.000005 12.568700 -1.965470 -98.748500 22.291600 -0.000001 0.000005 13.261300 5.457710 -4.919880 12.994500 -0.242716 -4.980390 90.123300 -0.371571 -71.737800 -5.348130 -0.000001 -0.000004 -76.353200 21.450800 29.454400 -24.328900 0.000322 -0.000009 -6.977990 -0.312947 -87.444100 -22.291500 -0.000108 -0.000004 17.359300 5.560850 -9.227420 -2.192480 -6.469440 -0.000000 -177.219000 -10.347200 3.726810 39.081100 -0.000007 -0.000012 0.166129 -0.112566 55.878000 40.985400 -0.000006 -0.000013 -1.453080 -0.398585 -37.213700 11.754300 -0.000000 0.000003 -0.005075 -0.062197 -19.107500 -2.192510 6.469440 -0.000001 -174.642000 12.289800 146.011000 -39.081100 -0.002282 -0.040193 -0.094719 0.128538 37.323800 -40.985400 0.000008 0.000006 -4.345860 8.939900 -72.679300 -11.754300 -0.000006 -0.000006 -0.021742 -0.176754 -23.798000
0.000000 0.000000 0.000000 0.000000 0.000000 -0.000000 4.952030 87.795200 -464.018000 89.953400 -4.722750 -9.553860 15.735700 0.000005 -0.000001 58.662200 82.147400 -55.428700 8.984550 -0.406207 -0.000000 5.935870 -8.198980 6.894270 16.377300 -0.000001 -0.000001 -5.926730 -3.254600 4.950930 6.456720 -0.000001 -0.000000 -16.887800 1.980610 6.787570 12.994200 -0.242716 4.980390 -89.212500 -2.771210 -74.127200 5.348090 -0.000007 -0.000001 -70.645200 31.761300 -14.948500 24.328600 0.000019 0.000005 10.364000 0.178100 -88.992000 22.291600 -0.000001 0.000005 15.205100 5.468120 -5.309150 12.994500 -0.242716 -4.980390 88.778800 4.078800 -73.305400 -5.348130 -0.000001 -0.000004 -74.396500 21.608900 22.564600 -24.328900 0.000322 -0.000009 -6.339380 -0.001020 -89.988100 -22.291500 -0.000108 -0.000004 18.321200 5.571350 -9.752830 -2.192480 -6.469440 -0.000000 -176.344000 -10.737100 -3.793010 39.081100 -0.000007 -0.000012 0.344020 -0.058411 80.362600 40.985400 -0.000006 -0.000013 -5.413900 -1.252690 -27.495500 11.754300 -0.000000 0.000003 -0.004620 -0.057745 -18.926100 -2.192510 6.469440 -0.000001 -172.509000 11.783800 147.662000 -39.081100 -0.002282 -0.040193 0.048741 -0.046257 44.511200 -40.985400 0.000008 0.000006 12.029000 1.872950 -73.970600 -11.754300 -0.000006 -0.000006 -0.014762 -0.136316 -22.134400
0.000000 0.000000 0.000000 0.000000 0.000000 -0.000000 4.641620 84.306100 -458.941000 88.519600 -6.741770 -7.855520 15.735700 0.000005 -0.000001 72.324800 82.337700 -68.484000 8.984550 -0.406207 -0.000000 7.021250 -4.661810 7.963080 16.377300 -0.000001 -0.000001 -5.581900 -2.883670 4.234690 6.456720 -0.000001 -0.000000 -14.832200 0.301334 6.766260 12.994200 -0.242716 4.980390 -89.961500 -0.136497 -74.228500 5.348090 -0.000007 -0.000001 -71.654300 32.044400 -9.441540 24.328600 0.000019 0.000005 5.721630 1.289170 -77.307700 22.291600 -0.000001 0.000005 18.647100 5.453340 -4.755500 12.994500 -0.242716 -4.980390 87.705300 8.561300 -74.928500 -5.348130 -0.000001 -0.000004 -70.476200 22.480500 13.099000 -24.328900 0.000322 -0.000009 -6.918490 0.292209 -92.403600 -22.291500 -0.000108 -0.000004 20.000900 5.559840 -9.187020 -2.192480 -6.469440 -0.000000 -175.159000 -11.671000 -14.606100 39.081100 -0.000007 -0.000012 0.470345 0.114716 103.705000 40.985400 -0.000006 -0.000013 -3.381660 -5.224410 -18.482000 11.754300 -0.000000 0.000003 -0.005703 -0.068119 -19.348900 -2.192510 6.469440 -0.000001 -172.759000 3.664940 148.092000 -39.081100 -0.002282 -0.040193 0.141585 -0.095117 55.493100 -40.985400 0.000008 0.000006 10.409900 -4.984410 -81.210600 -11.754300 -0.000006 -0.000006 -0.003773 -0.049057 -18.568500
0.000000 0.000000 0.000000 0.000000 0.000000 -0.000000 4.077080 81.928600 -453.876000 87.225600 -7.314710 -5.744400 15.735700 0.000005 -0.000001 81.626400 81.517800 -77.147300 8.984550 -0.406207 -0.000000 9.133730 -2.403280 9.144020 16.377300 -0.000001 -0.000001 -5.890990 -1.977250 3.751280 6.456720 -0.000001 -0.000000 -14.501000 0.707113 6.370020 12.994200 -0.242716 4.980390 -90.030100 0.102501 -73.632800 5.348090 -0.000007 -0.000001 -72.208700 34.424600 -4.924980 24.328600 0.000019 0.000005 5.230330 2.772840 -62.196900 22.291600 -0.000001 0.000005 21.381900 5.459590 -5.001420 12.994500 -0.242716 -4.980390 87.073000 11.335900 -75.419100 -5.348130 -0.000001 -0.000004 -64.763700 25.846000 -4.095730 -24.328900 0.000322 -0.000009 -5.467410 0.472221 -94.932200 -22.291500 -0.000108 -0.000004 22.077200 5.544050 -8.419010 -2.192480 -6.469440 -0.000000 -174.831000 -8.735250 -27.338700 39.081100 -0.000007 -0.000012 0.078992 0.048837 121.717000 40.985400 -0.000006 -0.000013 -0.434898 1.461190 -17.864100 11.754300 -0.000000 0.000003 -0.005995 -0.070802 -19.458300 -2.192510 6.469440 -0.000001 -171.756000 3.918120 152.154000 -39.081100 -0.002282 -0.040193 0.193285 -0.107331 60.549300 -40.985400 0.000008 0.000006 10.380300 -5.982780 -87.599700 -11.754300 -0.000006 -0.000006 -0.002565 -0.035581 -18.020000
